<?xml version="1.0" encoding="UTF-8" standalone="no"?>
<svg
   xmlns:dc="http://purl.org/dc/elements/1.1/"
   xmlns:cc="http://creativecommons.org/ns#"
   xmlns:rdf="http://www.w3.org/1999/02/22-rdf-syntax-ns#"
   xmlns:svg="http://www.w3.org/2000/svg"
   xmlns="http://www.w3.org/2000/svg"
   xmlns:sodipodi="http://sodipodi.sourceforge.net/DTD/sodipodi-0.dtd"
   xmlns:inkscape="http://www.inkscape.org/namespaces/inkscape"
   version="1.1"
   x="0px"
   y="0px"
   viewBox="0 0 87.596748 89.035118"
   xml:space="preserve"
   id="svg16"
   sodipodi:docname="static-curl.svg"
   width="87.596748"
   height="89.035118"
   inkscape:version="0.92.4 5da689c313, 2019-01-14"><metadata
     id="metadata22"><rdf:RDF><cc:Work
         rdf:about=""><dc:format>image/svg+xml</dc:format><dc:type
           rdf:resource="http://purl.org/dc/dcmitype/StillImage" /><dc:title></dc:title></cc:Work></rdf:RDF></metadata><defs
     id="defs20" /><sodipodi:namedview
     pagecolor="#ffffff"
     bordercolor="#666666"
     borderopacity="1"
     objecttolerance="10"
     gridtolerance="10"
     guidetolerance="10"
     inkscape:pageopacity="0"
     inkscape:pageshadow="2"
     inkscape:window-width="1920"
     inkscape:window-height="1013"
     id="namedview18"
     showgrid="false"
     inkscape:zoom="1.888"
     inkscape:cx="-48.686715"
     inkscape:cy="35.735117"
     inkscape:window-x="0"
     inkscape:window-y="0"
     inkscape:window-maximized="1"
     inkscape:current-layer="svg16"
     fit-margin-top="0"
     fit-margin-left="0"
     fit-margin-right="0"
     fit-margin-bottom="0" /><path
     d="m 86.933624,66.6 c 0.9,-5.6 0.8,-11.9 0.2,-15.1 -0.3,-1.4 -0.6,-3.5 -1,-5.7 -0.4,-2.6 -0.9,-5.4 -1.4,-8 -0.9,-4.7 -0.1,-9.2 0.1,-10.7 0.2,-1.4 1,-3.3 1.6,-5.2 l 0.1,-0.2 c 0.7,-1.8 1.2,-3.6 0.2,-6.3 -0.5,-1.4 -2,-3.4 -3.6,-5.5 -0.2,-0.3 -0.5,-0.7 -0.9,-1.1 l -0.3,16.3 -11.6,6.4 c 0,0.3 0,0.7 -0.2,0.9 -0.8,1.5 -2.1,4.1 -3.6,6.4 -1.1,1.7 -2.2,3.4 -3.1,4.9 -1.3,2.2 -2.8,5.7 -3.8,8.5 0.7,1.6 1.4,4 1.4,6.6 0,0.3 -0.2,0.5 -0.5,0.5 -0.1,0 -0.1,0 -0.2,-0.1 -0.2,-0.1 -0.3,-0.2 -0.3,-0.4 0,-3.6 -1.6,-6.8 -2.1,-7.8 0,0 0,0 0,0 0,0 0,0 0,-0.1 -1.5,-2.4 -3.8,-4.6 -7.1,-6.1 -3.7,-1.7 -6.8,-1.8 -9.4,-1.4 v 0 c 0,0 0,0 0,-0.1 -1.5,0.3 -4.8,1.1 -7.2,2.6 -0.1,0.1 -0.3,0.1 -0.5,0 -0.1,0 -0.2,-0.1 -0.2,-0.2 -0.1,-0.2 -0.1,-0.5 0.1,-0.7 2.4,-1.6 5.5,-2.4 7.2,-2.7 -1.3,-2.8 -4.8,-7.2 -11.7,-10.3 -9.7,-4.3 -17.1,-1.1 -17.4,-1 -0.1,0 -0.1,0.1 -0.2,0.1 -5.3999998,2.4 -9.5999998,8 -10.99999978,14.8 -1.80000002,8.5 0.99999998,17.4 7.69999998,24.5 0,0 0,0.1 0.1,0.2 0.2,0.3 6.1999998,7.8 17.1999998,13.1 8.4,4 19.7,6.7 33.5,3.8 9.6,1.9 14.4,1.5 14.6,1.5 h 0.3 l 0.3,-0.2 c 0.2,-0.2 4.5,-4.1 6.7,-7.7 3.2,-5.1 5.2,-10 6,-14.5 z m -33.2,7.7 c -0.1,0 -10.3,2.5 -19.7,-2 -3.3,-1.6 -6.6,-4.1 -9.3,-7.8 -0.2,-0.2 -0.1,-0.5 0.1,-0.7 0.2,-0.2 0.5,-0.1 0.7,0.1 9.8,13.8 27.7,9.5 27.9,9.5 0.3,-0.1 0.5,0.1 0.6,0.4 0.1,0.2 -0.1,0.4 -0.3,0.5 z m 16.3,-0.7 c -0.1,0.2 -0.4,0.2 -0.6,0.1 0,0 -0.1,0 -0.1,-0.1 -5.4,-4.3 -2.9,-11.4 -2.1,-13.8 0.1,-0.2 0.1,-0.4 0.2,-0.6 0.5,-1.7 7.6,-17.3 7.9,-18 0.1,-0.3 0.4,-0.4 0.7,-0.2 0.2,0.1 0.4,0.4 0.2,0.7 -0.1,0.2 -7.4,16.2 -7.8,17.8 -0.1,0.2 -0.1,0.4 -0.2,0.6 -0.9,2.4 -3.1,8.8 1.7,12.7 0.2,0.3 0.3,0.6 0.1,0.8 z"
     id="path2"
     inkscape:connector-curvature="0" /><path
     d="m 76.733624,2.3 c -0.7,-0.8 -1.7,-1.1 -2.7,-0.8 -0.5,0.1 -1,0.3 -1.6,0.4 l 8.1,4.9 c -1.3,-1.7 -2.8,-3.4 -3.8,-4.5 z"
     id="path4"
     inkscape:connector-curvature="0" /><path
     d="m 69.433624,17.2 c -0.3,0.6 -0.8,1 -1.4,1.2 -0.6,0.2 -1.3,0.2 -1.8,-0.1 -0.6,-0.3 -1,-0.8 -1.2,-1.4 -0.2,-0.6 -0.2,-1.3 0.1,-1.8 0.3,-0.6 0.8,-1 1.4,-1.2 0.4,-0.2 0.9,-0.2 1.3,-0.1 0.2,0 0.3,0.1 0.5,0.2 0.6,0.3 1,0.8 1.2,1.4 0.2,0.6 0.2,1.3 -0.1,1.8 z"
     id="path6"
     inkscape:connector-curvature="0" /><path
     d="m 72.033624,13.6 -4.7,-2.8 -4.8,2.6 v 5.4 l 4.6,2.8 4.8,-2.6 z m -1.7,4.1 c -0.4,0.8 -1.1,1.4 -1.9,1.7 -0.6,0.2 -1.3,0.3 -1.9,0.1 -0.2,-0.1 -0.5,-0.1 -0.7,-0.3 -0.8,-0.4 -1.4,-1.1 -1.7,-1.9 -0.3,-0.9 -0.3,-1.8 0.1,-2.6 0.4,-0.8 1.1,-1.4 1.9,-1.7 0.9,-0.3 1.8,-0.3 2.6,0.1 0.8,0.4 1.4,1.1 1.7,1.9 0.3,0.9 0.3,1.9 -0.1,2.7 z"
     id="path8"
     inkscape:connector-curvature="0" /><path
     d="m 81.433624,8.4 -13.9,-8.4 -14.1,7.8 -0.3,16.2 13.8,8.4 14.2,-7.8 z m -14.3,14.4 -5.6,-3.4 0.1,-6.6 5.8,-3.2 5.6,3.4 -0.1,6.6 z"
     id="path10"
     inkscape:connector-curvature="0" /></svg>